<?xml version="1.0" encoding="UTF-8" standalone="no"?>
<!-- Created with Inkscape (http://www.inkscape.org/) -->
<svg
   xmlns:svg="http://www.w3.org/2000/svg"
   xmlns="http://www.w3.org/2000/svg"
   version="1.0"
   width="769"
   height="249"
   viewBox="-0.5 -0.2 769 249"
   id="svg2"
   xml:space="preserve">
<defs
   id="defs4">
</defs>
<path
   d="M 745.6,43.2 C 759.7,31.5 767.3,20.1 768,9.2 L 565.1,9.2 C 560.9,26.4 554.7,41.6 546.2,54.5 L 652.7,54.5 C 654.7,50.4 656.6,47.3 658.5,45.2 C 659.9,43.2 662.9,42.7 667.5,43.2 L 745.6,43.2 L 745.6,43.2 z "
   style="fill:#d9dadb;fill-rule:evenodd"
   id="path6" />
<path
   d="M 608.8,82.1 L 633.3,77.6 L 645,64.8 L 540.2,64.8 C 517.4,89.2 515.7,106.3 534.9,116 C 537,116.3 537.6,114.6 536.7,110.9 C 535.3,106.2 535.9,101 538.7,95.7 C 540.7,91.3 543.1,88.2 545.9,86 L 586.5,86 L 545.9,132.5 C 541,135.5 534.9,136.7 528.1,135.9 L 481.6,135.9 L 468.5,147.5 L 526.8,147.5 C 539.2,148.1 548.8,145.4 555.1,139.3 L 595,93 C 600.1,85.9 604.7,82.4 608.8,82.1 L 608.8,82.1 z "
   style="fill:#d9dadb;fill-rule:evenodd"
   id="path8" />
<path
   d="M 416,38.4 L 486.9,38.4 C 482,54.9 455.2,86.5 406.9,132.9 C 361.7,177.7 333.6,214.5 322.4,243.7 L 375.7,243.7 L 383.2,230 L 383.8,229.6 L 383.8,229.2 L 384.5,227.6 C 403,196.8 428,166.8 459.5,138.5 C 520.2,79.7 550.7,36.4 551,7.9 L 399.8,7.9 L 362.5,72.8 L 391.9,72.8 L 416,38.4 L 416,38.4 z "
   style="fill:#d9dadb;fill-rule:evenodd"
   id="path10" />
<path
   d="M 329.7,9.5 C 304.6,0.1 276.4,9.9 244.9,39.5 C 233.5,50.4 223.1,62.6 212.9,76.6 C 204.7,87.3 198.7,96.5 195.1,104.1 L 186.5,121.6 C 180,135.7 174.8,149.7 171.3,163.3 C 159.7,205.8 165.9,232.5 189.9,243.7 C 214.3,255 242.5,246.2 274.4,217.9 C 293.7,200.1 309.6,181.1 322.4,160.1 L 331.3,145.3 C 343,122.6 350.7,98.9 354.3,73.9 L 354.7,71.9 C 359.4,38 350.9,17.2 329.7,9.5 L 329.7,9.5 z M 236.5,118.6 C 245,102 256.1,84.3 269.5,65.9 C 290.5,36.1 306.3,23.5 316.8,27.3 C 332.6,33.2 320.9,70.5 281.7,139.1 C 271.8,155.6 259.7,173.1 245.5,191.6 C 223.9,219 208.9,230.7 200.8,226.4 C 192.2,221.9 194.6,204.1 208.1,173.5 L 236.5,118.6 L 236.5,118.6 z "
   style="fill:#d9dadb;fill-rule:evenodd"
   id="path12" />
<path
   d="M 165.9,8.9 C 140.8,-0.7 112.6,9.5 81.2,39.2 C 69.9,49.7 59.1,62.1 49,76 C 40.8,86.7 34.9,95.9 31.2,103.6 L 22.7,120.8 C 16.1,135 10.9,149 7.3,162.7 C -4.3,205 2.1,231.9 26.2,243.1 C 50.3,254.2 78.5,245.6 110.5,217.2 C 129.8,199.6 146,180.4 158.8,159.7 L 167.4,144.6 C 179.1,122 186.8,98.3 190.5,73.7 L 190.8,71.4 C 195.5,37.4 187.1,16.7 165.9,8.9 L 165.9,8.9 z M 37,225.8 C 28.5,221.3 30.9,203.5 44.5,172.9 L 72.7,117.9 C 81.3,101.4 92.3,83.9 105.7,65.4 C 126.8,35.8 142.5,22.8 153,26.6 C 168.9,32.5 157.2,69.8 118.1,138.4 C 108.2,154.9 96.1,172.4 82,190.9 C 60.3,218.5 45.2,230 37,225.8 L 37,225.8 z "
   style="fill:#d9dadb;fill-rule:evenodd"
   id="path14" />
<path
   d="M 744.9,41.1 C 759,29.3 766.6,18 767.3,7 L 564.4,7 C 560.3,24.3 554.1,39.4 545.5,52.4 L 652,52.4 C 654,48.2 656.1,45.2 657.8,43.1 C 659.2,41.1 662.2,40.4 666.8,41.1 L 744.9,41.1 L 744.9,41.1 z "
   style="fill:#b1b2b4;fill-rule:evenodd"
   id="path16" />
<path
   d="M 644.3,62.5 L 539.6,62.5 C 516.8,87 514.9,104.1 534.3,113.8 C 536.3,113.9 536.8,112.4 536,108.6 C 534.6,104.1 535.3,98.9 538,93.5 C 540.1,89.1 542.5,85.9 545.2,83.8 L 585.8,83.8 L 545.2,130.3 C 540.3,133.3 534.4,134.5 527.6,133.7 L 481,133.7 L 467.8,145.3 L 526.1,145.3 C 538.6,145.9 548.1,143 554.6,137.1 L 594.3,90.7 C 599.4,83.8 604,80.3 608.3,80 L 632.7,75.5 L 644.3,62.5 L 644.3,62.5 z "
   style="fill:#b1b2b4;fill-rule:evenodd"
   id="path18" />
<path
   d="M 415.3,36.3 L 486.3,36.3 C 481.2,52.8 454.5,84.4 406.1,130.8 C 361,175.5 333,212.3 321.6,241.6 L 374.9,241.6 L 382.5,227.8 L 382.9,227.5 L 382.9,227.1 L 383.7,225.5 C 402,194.6 427.2,164.7 458.7,136.2 C 519.4,77.5 550.1,34.2 550.3,5.7 L 399.3,5.7 L 361.8,70.6 L 391.2,70.6 L 415.3,36.3 L 415.3,36.3 z "
   style="fill:#b1b2b4;fill-rule:evenodd"
   id="path20" />
<path
   d="M 329.1,7.4 C 304,-2.2 275.7,7.8 244.1,37.4 C 232.8,48.1 222.3,60.5 212.1,74.5 C 203.9,85.2 198,94.4 194.3,101.9 L 185.8,119.4 C 179.2,133.6 174,147.5 170.4,161.3 C 158.8,203.6 165,230.5 189,241.7 C 213.4,252.8 241.6,244.4 273.5,215.7 C 293,198 309,178.9 321.9,158 L 330.6,143.1 C 342.3,120.5 350,96.8 353.7,71.9 L 354,69.9 C 358.7,35.9 350.4,15.1 329.1,7.4 L 329.1,7.4 z M 235.8,116.4 C 244.3,99.9 255.4,82.3 268.8,63.7 C 289.9,34.1 305.6,21.4 316.1,25.2 C 332,31.1 320.2,68.4 281.2,137 C 271.2,153.5 259.1,171 245,189.5 C 223.3,216.7 208.4,228.6 200.2,224.3 C 191.7,219.8 194.1,202 207.5,171.4 L 235.8,116.4 L 235.8,116.4 z "
   style="fill:#b1b2b4;fill-rule:evenodd"
   id="path22" />
<path
   d="M 165.2,6.8 C 140.2,-2.8 112,7.4 80.6,37 C 69.1,47.6 58.4,60 48.3,73.8 C 40.1,84.7 34.2,93.7 30.7,101.6 L 22.1,118.8 C 15.5,132.9 10.3,147 6.7,160.7 C -4.8,203 1.5,229.9 25.6,241 C 49.7,252.1 78,243.5 110,215 C 129.3,197.4 145.4,178.2 158.3,157.3 L 166.8,142.3 C 178.5,119.6 186.2,95.9 189.9,71.2 L 190.3,69.1 C 194.8,35.3 186.4,14.6 165.2,6.8 L 165.2,6.8 z M 72,115.8 C 80.6,99.3 91.6,81.8 105,63.3 C 126.1,33.7 141.8,20.7 152.3,24.4 C 168.2,30.5 156.5,67.7 117.4,136.2 C 107.7,152.8 95.6,170.3 81.3,188.8 C 59.7,216.3 44.5,227.7 36.5,223.6 C 27.9,218.9 30.3,201.3 43.8,170.7 L 72,115.8 L 72,115.8 z "
   style="fill:#b1b2b4;fill-rule:evenodd"
   id="path24" />
<path
   d="M 549.2,4 L 398,4 L 360.7,69 L 390.1,69 L 414.1,34.4 L 485.1,34.4 C 480.2,50.9 453.4,82.5 404.9,128.9 C 359.8,173.7 331.8,210.6 320.5,239.7 L 373.8,239.7 L 381.4,226 L 381.7,225.6 L 381.7,225.3 L 382.5,223.6 C 401,192.7 426,162.8 457.5,134.5 C 518.3,75.8 548.9,32.5 549.2,4 L 549.2,4 z "
   style="fill:#878889;fill-rule:evenodd"
   id="path26" />
<path
   d="M 650.9,50.7 C 652.9,46.5 654.8,43.5 656.7,41.3 C 658.1,39.3 661.1,38.8 665.6,39.3 L 743.8,39.3 C 757.9,27.6 765.5,16.2 766.2,5.3 L 563.3,5.3 C 559.1,22.5 552.9,37.7 544.4,50.7 L 650.9,50.7 L 650.9,50.7 z "
   style="fill:#878889;fill-rule:evenodd"
   id="path28" />
<path
   d="M 607,78.2 L 631.5,73.7 L 643.2,60.7 L 538.3,60.7 C 515.5,85.2 513.6,102.3 532.9,112 C 534.9,112.3 535.6,110.6 534.7,106.9 C 533.3,102.2 533.9,97 536.7,91.7 C 538.7,87.3 541.1,84.2 543.9,82 L 584.5,82 L 544,128.5 C 539.1,131.6 533,132.7 526.2,131.9 L 479.7,131.9 L 466.6,143.5 L 524.8,143.5 C 537.3,144.2 546.9,141.4 553.3,135.3 L 593,89 C 598.2,82 602.9,78.4 607,78.2 L 607,78.2 z "
   style="fill:#878889;fill-rule:evenodd"
   id="path30" />
<path
   d="M 352.5,70.1 L 352.9,68 C 357.4,34 349.1,13.3 327.8,5.5 C 302.7,-3.9 274.5,5.9 243,35.5 C 231.6,46.4 221.2,58.6 211,72.6 C 202.8,83.3 196.8,92.5 193.2,100.1 L 184.6,117.6 C 178.1,131.7 172.9,145.7 169.4,159.3 C 157.8,201.7 164,228.5 188,239.7 C 212.2,251 240.6,242.2 272.5,213.9 C 291.8,196.1 307.7,177.1 320.5,156.2 L 329.4,141.2 C 341.2,118.6 349,94.9 352.5,70.1 L 352.5,70.1 z M 267.7,61.9 C 288.7,32.1 304.5,19.5 315,23.3 C 330.8,29.2 319.1,66.5 279.9,135.1 C 270,151.6 257.9,169.1 243.7,187.6 C 222.1,215 207.2,226.8 199,222.4 C 190.4,217.9 192.8,200.1 206.3,169.5 L 234.5,114.6 C 243.2,98.2 254.3,80.4 267.7,61.9 L 267.7,61.9 z "
   style="fill:#878889;fill-rule:evenodd"
   id="path32" />
<path
   d="M 21,117.1 C 14.4,131.2 9.2,145.2 5.6,158.8 C -6,201.1 0.4,228 24.5,239.2 C 48.6,250.4 76.8,241.7 108.8,213.2 C 128.1,195.6 144.2,176.4 157.1,155.5 L 165.7,140.6 C 177.4,118 185.1,94.3 188.8,69.7 L 189.1,67.6 C 193.8,33.5 185.4,12.7 164.2,5 C 139,-4.6 110.7,5.5 79.4,35.3 C 68,45.7 57.3,58.1 47.2,72.1 C 39,82.8 33.1,92 29.4,99.7 L 21,117.1 L 21,117.1 z M 103.8,61.5 C 124.9,31.9 140.6,18.9 151.1,22.7 C 167,28.6 155.3,65.9 116.2,134.5 C 106.3,151 94.2,168.5 80.1,187 C 58.4,214.5 43.3,226.1 35.2,221.8 C 26.7,217.3 29.1,199.7 42.5,168.9 L 70.8,113.9 C 79.4,97.5 90.6,80 103.8,61.5 L 103.8,61.5 z "
   style="fill:#878889;fill-rule:evenodd"
   id="path34" />
<path
   d="M 391.1,66.9 L 415.1,32.8 L 485.5,32.8 C 480.6,49.3 453.9,80.6 406,126.6 C 361.2,171 333.3,207.5 322,236.6 L 375,236.6 L 382.3,223.1 L 382.9,222.7 L 382.9,222.3 L 383.6,220.7 C 402.1,190.1 426.9,160.5 458,132.1 C 518.4,73.9 548.9,30.8 549,2.5 L 399.1,2.5 L 361.9,66.9 L 391.1,66.9 L 391.1,66.9 z "
   style="fill-rule:evenodd"
   id="path36" />
<path
   d="M 742.2,37.4 C 756.3,25.8 763.8,14.6 764.5,3.7 L 563.1,3.7 C 558.9,20.9 552.8,35.9 544.2,48.7 L 650,48.7 C 652,44.6 653.9,41.6 655.8,39.4 C 657.2,37.4 660.2,36.9 664.7,37.4 L 742.2,37.4 L 742.2,37.4 z "
   style="fill-rule:evenodd"
   id="path38" />
<path
   d="M 606.5,76.2 L 630.7,71.7 L 642.4,58.9 L 538.3,58.9 C 515.6,83.2 513.9,100.1 533.1,109.8 C 535.1,109.9 535.6,108.4 534.8,104.7 C 533.4,100 534.1,95 536.8,89.6 C 538.8,85.2 541.2,82.1 544,80 L 584.2,80 L 544,126.1 C 539.1,129.1 533.1,130.3 526.4,129.5 L 480.2,129.5 L 467.2,140.9 L 525,140.9 C 537.4,141.6 547,138.8 553.2,132.9 L 592.8,86.9 C 597.8,80 602.3,76.3 606.5,76.2 L 606.5,76.2 z "
   style="fill-rule:evenodd"
   id="path40" />
<path
   d="M 354.3,66.2 C 358.8,32.4 350.5,11.8 329.4,4.2 C 304.6,-5.4 276.6,4.5 245.1,34 C 233.8,44.7 223.4,57 213.3,70.8 C 205.3,81.4 199.4,90.5 195.8,98 L 187.3,115.3 C 180.7,129.4 175.6,143.2 172.1,156.9 C 160.5,198.9 166.7,225.6 190.6,236.6 C 214.7,247.7 242.7,239.3 274.6,210.9 C 293.8,193.4 309.5,174.4 322.4,153.6 L 331,138.8 C 342.7,116.2 350.4,92.8 354,68.2 L 354.3,66.2 L 354.3,66.2 z M 236.8,112.3 C 245.3,95.9 256.4,78.3 269.6,60 C 290.5,30.5 306.1,18 316.5,21.6 C 332.3,27.5 320.6,64.5 281.7,132.7 C 271.8,149.1 259.9,166.4 245.9,184.7 C 224.3,211.8 209.5,223.5 201.4,219.3 C 192.9,214.8 195.3,197.3 208.7,166.8 L 236.8,112.3 L 236.8,112.3 z "
   style="fill-rule:evenodd"
   id="path42" />
<path
   d="M 191.6,65.5 C 196.2,31.8 187.8,11.2 166.8,3.5 C 141.9,-5.9 113.8,4.2 82.7,33.5 C 71.4,44 60.8,56.3 50.7,70.1 C 42.7,80.7 36.8,89.8 33.2,97.5 L 24.6,114.7 C 18.1,128.8 13,142.6 9.4,156.2 C -2,198.3 4.3,225 28.3,236 C 52.1,247.1 80.1,238.5 111.8,210.3 C 131,192.7 147,173.8 159.8,153 L 168.3,138.2 C 180,115.6 187.6,92.1 191.3,67.7 L 191.6,65.5 L 191.6,65.5 z M 74.2,111.7 C 82.7,95.3 93.6,78 106.9,59.5 C 127.9,30.2 143.5,17.3 154,21 C 169.8,26.9 158.1,64 119.2,132 C 109.6,148.5 97.5,165.8 83.6,184.2 C 62,211.4 47,223 38.9,218.8 C 30.4,214.3 32.8,196.7 46.2,166.3 L 74.2,111.7 L 74.2,111.7 z "
   style="fill-rule:evenodd"
   id="path44" />
</svg>