<?xml version="1.0" encoding="UTF-8" ?>
<!DOCTYPE svg PUBLIC "-//W3C//DTD SVG 1.1//EN" "http://www.w3.org/Graphics/SVG/1.1/DTD/svg11.dtd">
<svg width="128pt" height="128pt" viewBox="0 0 128 128" version="1.1" xmlns="http://www.w3.org/2000/svg">
<g id="#333333ff">
<path fill="#333333" opacity="1.00" d=" M 60.44 0.00 L 65.58 0.00 C 82.28 0.48 98.72 7.61 110.19 19.80 C 121.00 30.89 127.22 46.06 128.00 61.47 L 128.00 67.45 C 126.90 84.72 118.80 101.49 105.54 112.67 C 94.96 121.75 81.37 127.02 67.49 128.00 L 60.61 128.00 C 45.48 126.98 30.66 120.82 19.76 110.20 C 8.05 99.17 1.05 83.57 0.00 67.56 L 0.00 60.51 C 1.03 44.94 7.56 29.69 18.77 18.73 C 29.70 7.57 44.91 1.05 60.44 0.00 M 24.98 23.88 C 12.99 35.38 6.68 52.44 8.27 68.97 C 9.25 80.82 14.26 92.22 22.12 101.11 C 29.86 95.85 39.29 94.40 47.92 91.18 C 46.23 101.42 52.63 110.70 59.44 117.65 C 61.36 120.09 65.31 121.08 67.57 118.55 C 74.91 111.57 81.67 101.88 80.07 91.23 C 88.73 94.34 98.16 95.86 105.88 101.14 C 115.38 90.35 120.68 75.85 119.87 61.45 C 119.43 50.04 115.29 38.81 108.27 29.81 C 99.16 17.87 85.03 9.89 70.07 8.36 C 53.73 6.47 36.69 12.32 24.98 23.88 Z" />
<path fill="#333333" opacity="1.00" d=" M 42.38 29.45 C 48.50 21.45 59.50 18.91 69.08 20.35 C 76.37 21.36 83.67 25.28 87.17 31.97 C 90.21 38.29 89.53 45.58 88.60 52.32 C 92.31 53.27 92.46 57.65 91.55 60.68 C 90.84 64.16 87.87 66.45 86.48 69.61 C 83.60 75.65 79.74 81.56 73.97 85.20 C 67.12 89.47 57.58 88.73 51.51 83.37 C 46.18 79.12 43.24 72.86 40.01 67.05 C 36.69 63.44 34.63 57.94 37.08 53.29 C 37.67 53.11 38.86 52.73 39.45 52.54 C 38.26 44.85 37.52 36.09 42.38 29.45 M 45.43 40.40 C 40.62 45.66 44.06 53.13 44.91 59.24 C 43.76 57.56 43.32 54.69 41.08 54.22 C 38.37 55.96 39.59 59.73 40.72 62.07 C 45.02 67.17 46.56 73.99 51.08 78.94 C 56.32 85.23 66.28 86.30 73.14 82.19 C 79.05 78.39 81.55 71.51 84.72 65.60 C 87.07 62.73 89.82 58.77 87.87 55.00 C 85.19 52.80 84.24 57.66 83.07 59.30 C 83.92 55.33 84.72 51.35 85.07 47.30 C 73.55 47.10 61.24 44.41 53.09 35.64 C 50.11 36.37 47.28 37.88 45.43 40.40 Z" />
<path fill="#333333" opacity="1.00" d=" M 57.39 94.94 C 60.38 90.75 67.64 90.56 70.57 94.92 C 69.16 96.51 67.66 98.01 66.09 99.45 C 67.53 102.97 68.98 106.48 70.49 109.97 C 68.62 112.30 66.43 114.33 64.03 116.09 C 61.56 114.39 59.32 112.37 57.53 109.96 C 58.99 106.50 60.42 103.03 61.83 99.54 C 60.21 98.15 58.71 96.62 57.39 94.94 Z" />
</g>
</svg>
